<svg xmlns="http://www.w3.org/2000/svg" viewBox="0 0 333.26 407.99"><defs><style>.cls-1{fill:#fff;}</style></defs><title>Asset 1</title><g id="Layer_2" data-name="Layer 2"><g id="Layer_1-2" data-name="Layer 1"><path class="cls-1" d="M333.26,136.22,302,117.59c-5.2-12.92-12.91-21.64-19.82-29.34l-.78-.87C265,69,246.74,60.39,227.13,61.75c-24.73,1.73-49.52,19.56-71.91,51.54-4.72-1.92-9.46-3.77-14.18-5.6C103.24,93,67.53,79.14,46.94,23L38.51,0,35.57,24.31c-3,24.47-3.47,45.59-2.09,64a123.75,123.75,0,0,1-19.81-32.5L5.05,35.72,2.42,57.46c-15.29,126.47,44.83,153.75,97.86,177.81l.1,0c-5.28,20-8.18,47.56-11,74.28-1.34,12.77-2.86,27.24-4.77,40.65-2.55.41-5.06.79-7.5,1.17-20.89,3.2-36,5.51-40.25,15.68-3.52,8.39,2.94,17.34,5.07,20.28C48.51,396.49,58.16,408,68.86,408a15.06,15.06,0,0,0,3.84-.5c11.85-3.16,17.86-19.67,22.29-47a224.18,224.18,0,0,0,28.89-6.86c84.23-26.72,100.31-85.73,114.5-137.78,10-36.49,18.68-68.5,49.66-83.5C297,128.91,333.26,136.22,333.26,136.22ZM69.67,396.12c-2.78.73-9.05-3-18.19-15.63-4.5-6.22-3.92-8.46-3.76-8.84,1.71-4.09,18.06-6.59,31.18-8.6l3.79-.59C79.54,380.55,75.41,394.58,69.67,396.12ZM12.26,79a117.11,117.11,0,0,0,23.45,28.31c10.22,63,45.32,90.1,77.3,114.77,6.95,5.36,13.68,10.56,19.94,16-8.94-4.93-18.41-9.23-27.81-13.5C56.47,202.47,6.23,179.68,12.26,79ZM120.33,342.38a203.52,203.52,0,0,1-23.53,5.77c1.49-11.08,2.85-23.56,4.29-37.32,2.67-25.41,5.42-51.55,10.16-70.53,33,15.4,59.51,31.9,58.92,76.92C157.22,327.22,141,335.81,120.33,342.38Zm61.39-35.28c-2.8-49-31.37-71.07-61.52-94.32-40.17-31-81.61-63-75-164.71,23.19,44,57.91,57.49,91.63,70.59,37.65,14.63,73.23,28.45,92.81,84.66-.86,3.11-1.71,6.24-2.57,9.39C217.89,246.2,208.55,280.43,181.72,307.1Zm53.31-122c-17-37.75-42.14-55-68.77-67.08C185.93,90.66,207.67,74.91,228,73.49c15.77-1.13,30.81,6.2,44.7,21.73l.79.88c5.88,6.56,11.93,13.33,16.31,22.64C258,130.77,244.54,155.94,235,185.12Z"/></g></g></svg>